<?xml version="1.0" standalone="no"?><!DOCTYPE svg PUBLIC "-//W3C//DTD SVG 1.1//EN" "http://www.w3.org/Graphics/SVG/1.1/DTD/svg11.dtd"><svg t="1729235373505" class="icon" viewBox="0 0 1024 1024" version="1.1" xmlns="http://www.w3.org/2000/svg" p-id="13046" xmlns:xlink="http://www.w3.org/1999/xlink" width="128" height="128"><path d="M0 1024l477.38496 0L477.38496 546.61376 0 546.61376 0 1024zM47.73888 594.35264l381.90848 0 0 381.90848L47.73888 976.26112 47.73888 594.35264zM525.12384 1024l477.38496 0L1002.5088 546.61376 525.12384 546.61376 525.12384 1024zM572.86272 594.35264l381.90848 0 0 381.90848L572.86272 976.26112 572.86272 594.35264zM0 498.87616l477.38496 0L477.38496 21.48992 0 21.48992 0 498.87616zM47.73888 69.2288l381.90848 0 0 381.90848L47.73888 451.13728 47.73888 69.2288zM700.25088 476.31232c29.4336 1.76896 181.4208 35.63264 257.85472-41.51168 139.1744-140.45184 26.21824-300.57088-141.11488-229.49376C886.25408 37.03424 721.49632-73.42848 581.53728 65.216c-76.8704 76.1408-40.12928 230.57536-37.86368 260.40192 5.42592 71.44064-0.99584 144.70528-13.61024 166.6176C551.9104 479.42656 629.75744 472.07808 700.25088 476.31232zM647.88096 69.78688C772.864-10.9248 823.79776 106.59584 766.35648 255.94112l1.50912-1.50656c148.45056-59.10272 268.47488-9.85088 186.76992 114.89536-69.8816 106.70336-204.18688 69.86624-231.08992 68.63872-59.0336-2.69696-114.69312-7.6032-147.97312 8.61056 9.4208-27.5328 11.10272-76.62208 7.42016-136.43392C581.31456 282.88768 540.97536 138.81728 647.88096 69.78688z" fill="#969696" p-id="13047"></path></svg>