<?xml version="1.0" standalone="no"?><!DOCTYPE svg PUBLIC "-//W3C//DTD SVG 1.1//EN" "http://www.w3.org/Graphics/SVG/1.1/DTD/svg11.dtd"><svg t="1729065490909" class="icon" viewBox="0 0 1024 1024" version="1.1" xmlns="http://www.w3.org/2000/svg" p-id="15644" xmlns:xlink="http://www.w3.org/1999/xlink" width="128" height="128"><path d="M391.529412 190.343529c18.853647 0 34.153412-14.998588 34.153412-33.551058v-15.480471H630.663529v15.480471c0 18.552471 15.239529 33.611294 34.153412 33.611294 18.853647 0 34.153412-15.058824 34.153412-33.611294V67.222588a33.852235 33.852235 0 0 0-34.153412-33.611294 33.852235 33.852235 0 0 0-34.153412 33.611294v6.866824H425.682824v-6.866824A33.852235 33.852235 0 0 0 391.529412 33.611294a33.852235 33.852235 0 0 0-34.213647 33.611294v89.569883c0 18.552471 15.299765 33.611294 34.213647 33.611294zM406.226824 298.767059a33.852235 33.852235 0 0 0-34.153412 33.611294v32.768c0 18.552471 15.299765 33.611294 34.153412 33.611294 18.853647 0 34.153412-15.058824 34.153411-33.611294v-32.768a33.852235 33.852235 0 0 0-34.153411-33.551059zM650.059294 298.767059a33.852235 33.852235 0 0 0-34.153412 33.611294v32.768c0 18.552471 15.299765 33.611294 34.153412 33.611294 18.913882 0 34.153412-15.058824 34.153412-33.611294v-32.768a33.852235 33.852235 0 0 0-34.153412-33.551059zM565.187765 460.378353c-0.120471 0.180706-14.878118 21.263059-37.345883 21.263059-21.865412 0-35.538824-19.516235-36.382117-20.841412a34.514824 34.514824 0 0 0-46.863059-10.541176 33.310118 33.310118 0 0 0-11.023059 46.260705c12.288 19.456 45.899294 52.284235 94.268235 52.284236 48.067765 0 82.100706-32.587294 94.689883-51.862589a33.129412 33.129412 0 0 0-10.11953-46.019764 34.695529 34.695529 0 0 0-47.22447 9.456941z" fill="#2c2c2c" p-id="15645"></path><path d="M797.515294 74.089412a33.852235 33.852235 0 0 0-34.153412 33.611294c0 18.552471 15.299765 33.551059 34.213647 33.551059 45.778824 0 82.944 37.526588 82.944 83.606588v621.025882c0 46.140235-37.225412 83.606588-82.944 83.606589H258.770824c-45.778824 0-83.004235-37.526588-83.004236-83.666824V224.798118c0-46.08 37.225412-83.606588 83.004236-83.606589 18.853647 0 34.153412-15.058824 34.153411-33.551058a33.852235 33.852235 0 0 0-34.153411-33.611295A151.190588 151.190588 0 0 0 107.459765 224.798118v621.025882a151.190588 151.190588 0 0 0 151.311059 150.829176h538.804705a151.190588 151.190588 0 0 0 151.250824-150.708705V224.858353a151.190588 151.190588 0 0 0-151.250824-150.768941z" fill="#2c2c2c" p-id="15646"></path><path d="M243.471059 817.513412c0 18.552471 15.299765 33.611294 34.153412 33.611294h501.037176c18.913882 0 34.153412-15.058824 34.153412-33.611294a33.852235 33.852235 0 0 0-34.153412-33.611294H277.684706a33.852235 33.852235 0 0 0-34.153412 33.611294z" fill="#2c2c2c" p-id="15647"></path></svg>