<?xml version="1.0" standalone="no"?><!DOCTYPE svg PUBLIC "-//W3C//DTD SVG 1.1//EN" "http://www.w3.org/Graphics/SVG/1.1/DTD/svg11.dtd"><svg t="1729237978087" class="icon" viewBox="0 0 1024 1024" version="1.1" xmlns="http://www.w3.org/2000/svg" p-id="9375" xmlns:xlink="http://www.w3.org/1999/xlink" width="200" height="200"><path d="M378 894.8c-24.5 0-44.4-19.9-44.4-44.4S353.5 806 378 806s44.4 19.9 44.4 44.4c0.1 24.5-19.9 44.4-44.4 44.4zM649 894.8c-24.5 0-44.4-19.9-44.4-44.4S624.5 806 649 806s44.4 19.9 44.4 44.4c0.1 24.5-19.9 44.4-44.4 44.4zM195.9 282.9l-7.6-42.2h724.9c5.7 0 10.3 1.7 12.4 4.7 2.2 3.1 1.6 7.2 0.6 10.1L803.8 626c-1.3 2.2-8.9 7-18.7 7H258.8l-56.7-315.8" fill="#FFFFFF" p-id="9376"></path><path d="M171.7 317.2L228.4 633h526.3c9.8 0 17.4-4.9 18.7-7l107.7-326H168.6l3.1 17.2z" fill="#E87A66" p-id="9377"></path><path d="M895.3 245.3c-2.1-3-6.7-4.7-12.4-4.7h-725l7.6 42.2 3.1 17.1h712.5l14.8-44.6c0.9-2.8 1.6-6.9-0.6-10z" fill="#F7DF8A" p-id="9378"></path><path d="M346.8 894.8c-24.5 0-44.4-19.9-44.4-44.4s19.9-44.4 44.4-44.4 44.4 19.9 44.4 44.4c0.1 24.5-19.9 44.4-44.4 44.4zM617.8 894.8c-24.5 0-44.4-19.9-44.4-44.4s19.9-44.4 44.4-44.4 44.4 19.9 44.4 44.4c0.1 24.5-19.9 44.4-44.4 44.4z" fill="#65D5EF" p-id="9379"></path><path d="M953 225.3c-8.7-12-23.3-18.9-40.2-18.9h-731l-8.8-49.3c-0.1-0.7-0.3-1.3-0.4-2-5.2-19.5-22.9-33.1-43-33.1H82.1c-9.5 0-17.1 7.7-17.1 17.1s7.7 17.1 17.1 17.1h47.3c4.5 0 8.5 3 9.8 7.3l96.2 535.9c3.8 21.3 22.3 36.7 43.8 36.7h515.5c9.5 0 17.1-7.7 17.1-17.1 0-9.5-7.7-17.1-17.1-17.1H279.3c-5 0-9.2-3.6-10.1-8.5l-4.7-26.1h520.2c20.4 0 44.6-10.4 51.2-30.4l122.6-370.7c4.7-14.6 2.8-29.5-5.5-40.9z m-27.1 30.1L803.4 626c-1.3 2.2-8.9 7-18.7 7H258.4l-56.7-315.8h403.1c9.5 0 17.1-7.7 17.1-17.1s-7.7-17.1-17.1-17.1H195.5l-7.6-42.2h724.9c5.7 0 10.3 1.7 12.4 4.7 2.3 2.9 1.6 7 0.7 9.9z" fill="#274359" p-id="9380"></path><path d="M377.5 767.9c-45.5 0-82.5 37-82.5 82.5s37 82.5 82.5 82.5 82.5-37 82.5-82.5-37-82.5-82.5-82.5z m0 126.9c-24.5 0-44.4-19.9-44.4-44.4S353 806 377.5 806s44.4 19.9 44.4 44.4-19.9 44.4-44.4 44.4zM648.5 767.9c-45.5 0-82.5 37-82.5 82.5s37 82.5 82.5 82.5 82.5-37 82.5-82.5-37-82.5-82.5-82.5z m0 126.9c-24.5 0-44.4-19.9-44.4-44.4S624 806 648.5 806s44.4 19.9 44.4 44.4-19.9 44.4-44.4 44.4z" fill="#274359" p-id="9381"></path><path d="M714.4 282.9h-36.5c-9.5 0-17.1 7.7-17.1 17.1s7.7 17.1 17.1 17.1h36.5c9.5 0 17.1-7.7 17.1-17.1s-7.6-17.1-17.1-17.1z" fill="#23485B" p-id="9382"></path></svg>