<?xml version="1.0" standalone="no"?><!DOCTYPE svg PUBLIC "-//W3C//DTD SVG 1.1//EN" "http://www.w3.org/Graphics/SVG/1.1/DTD/svg11.dtd"><svg t="1729559208229" class="icon" viewBox="0 0 1024 1024" version="1.1" xmlns="http://www.w3.org/2000/svg" p-id="6439" xmlns:xlink="http://www.w3.org/1999/xlink" width="128" height="128"><path d="M948.8 543c16.9-16.9 16.9-44.2 0-61L595.5 128.6c-16.9-16.9-44.2-16.9-61.1 0s-16.9 44.2 0 61.1l322.8 322.8-321.1 321.1-0.1 0.1c-16.8 16.9-16.8 44.2 0.1 61 16.9 16.8 44.2 16.8 61-0.1L948.8 543z m-457.2 0c16.9-16.9 16.9-44.2 0-61L138.3 128.6l-0.1-0.1c-16.9-16.8-44.2-16.8-61 0.1-16.8 16.9-16.8 44.2 0.1 61L400 512.5 78.9 833.6l-0.8 0.8c-16.6 17.1-16.3 44.4 0.8 61s44.4 16.3 61-0.8L491.6 543z" p-id="6440"></path></svg>