<?xml version="1.0" standalone="no"?><!DOCTYPE svg PUBLIC "-//W3C//DTD SVG 1.1//EN" "http://www.w3.org/Graphics/SVG/1.1/DTD/svg11.dtd"><svg t="1729559553827" class="icon" viewBox="0 0 1024 1024" version="1.1" xmlns="http://www.w3.org/2000/svg" p-id="5197" xmlns:xlink="http://www.w3.org/1999/xlink" width="200" height="200"><path d="M695.409778 438.670222l-142.222222 142.222222-100.465778-100.522666a35.669333 35.669333 0 0 0-50.232889 0l-125.724445 125.724444a35.669333 35.669333 0 0 0 0 50.232889c13.824 13.767111 36.465778 13.767111 50.289778 0l100.579556-100.636444 100.124444 100.181333 0.284445 0.455111a35.783111 35.783111 0 0 0 50.346666 0l0.398223-0.455111 166.912-166.912a35.669333 35.669333 0 0 0 0-50.289778 35.669333 35.669333 0 0 0-50.289778 0zM813.511111 156.444444h-57.116444a97.848889 97.848889 0 0 0-93.980445-71.111111H360.106667a97.848889 97.848889 0 0 0-93.980445 71.111111H209.009778C150.186667 156.444444 102.4 204.231111 102.4 263.111111v568.888889c0 58.823111 47.786667 106.666667 106.666667 106.666667H813.511111c58.88 0 106.666667-47.786667 106.666667-106.666667v-568.888889A106.894222 106.894222 0 0 0 813.511111 156.444444z m-479.971555 26.624a26.737778 26.737778 0 0 1 26.624-26.624h302.250666a26.737778 26.737778 0 0 1 26.624 26.624v17.806223a26.737778 26.737778 0 0 1-26.624 26.624H360.106667a26.737778 26.737778 0 0 1-26.624-26.624v-17.806223z m515.470222 648.817778c0 19.626667-15.928889 35.612444-35.555556 35.612445H209.009778a35.612444 35.612444 0 0 1-35.612445-35.612445V263.111111c0-19.626667 15.928889-35.612444 35.612445-35.612444h57.116444A97.848889 97.848889 0 0 0 360.106667 298.666667h302.250666a97.848889 97.848889 0 0 0 93.980445-71.111111H813.511111c19.626667 0 35.612444 15.985778 35.612445 35.612444v568.775111h-0.113778z" fill="#7dd082" p-id="5198"></path></svg>