<?xml version="1.0" standalone="no"?><!DOCTYPE svg PUBLIC "-//W3C//DTD SVG 1.1//EN" "http://www.w3.org/Graphics/SVG/1.1/DTD/svg11.dtd"><svg t="1729236157348" class="icon" viewBox="0 0 1024 1024" version="1.1" xmlns="http://www.w3.org/2000/svg" p-id="24054" xmlns:xlink="http://www.w3.org/1999/xlink" width="128" height="128"><path d="M928 608c17.67 0 32-14.33 32-32V224c0-52.93-43.07-96-96-96H160c-52.93 0-96 43.07-96 96v576c0 52.93 43.07 96 96 96h704c52.93 0 96-43.07 96-96v-32c0-17.67-14.33-32-32-32s-32 14.33-32 32v32c0 17.64-14.36 32-32 32H160c-17.65 0-32-14.36-32-32V224c0-17.65 14.35-32 32-32h704c17.64 0 32 14.35 32 32v352c0 17.67 14.33 32 32 32z" p-id="24055"></path><path d="M353.77 670.23C396.19 712.64 452.38 736 512 736c59.62 0 115.81-23.36 158.23-65.77S736 571.62 736 512V357.09c10.41-8.99 17-22.26 17-37.09 0-27.06-21.94-49-49-49s-49 21.94-49 49c0 14.83 6.59 28.11 17 37.09V512c0 88.22-71.78 160-160 160s-160-71.78-160-160V357.09c10.41-8.99 17-22.26 17-37.09 0-27.06-21.94-49-49-49s-49 21.94-49 49c0 14.83 6.59 28.11 17 37.09V512c0 59.62 23.36 115.81 65.77 158.23z" p-id="24056"></path></svg>