<?xml version="1.0" standalone="no"?><!DOCTYPE svg PUBLIC "-//W3C//DTD SVG 1.1//EN" "http://www.w3.org/Graphics/SVG/1.1/DTD/svg11.dtd"><svg t="1729222732205" class="icon" viewBox="0 0 1024 1024" version="1.1" xmlns="http://www.w3.org/2000/svg" p-id="5259" data-spm-anchor-id="a313x.search_index.0.i5.662f3a81kjnZNl" xmlns:xlink="http://www.w3.org/1999/xlink" width="200" height="200"><path d="M583 288.2l51.9 105.1c5.9 4.1 23.6-2.7 35.4-1l108 22.7c29.6 4.3 41.2 55.7 19.8 76.6l-83.9 81.8c-8.5 8.3-12.4 20.2-10.4 32l19.8 115.5c5.1 29.5-20.1 86.7-46.6 72.8l-103.3-46c-10.5-5.5-42.8-34.2-53.3-28.7l-90.2 39.9c-26.5 13.9-57.4-8.6-52.4-38.1l19.8-115.5c2-11.7-1.9-23.7-10.4-32l-83.9-81.8c-21.4-20.9-9.6-57.3 20-61.6l116-16.9c11.8-1.7 21.9-9.1 27.2-19.8l51.9-105.1c13.1-26.7 51.4-26.7 64.6 0.1z" fill="#4cb052" p-id="5260" data-spm-anchor-id="a313x.search_index.0.i1.662f3a81kjnZNl" class=""></path><path d="M348.9 817.5c-12.7 0-25.3-4-36-11.8-19-13.8-28.4-36.8-24.4-60L312 608.5c1.4-7.9-1.3-16-7-21.6l-99.7-97.2c-16.9-16.4-22.8-40.5-15.5-62.9 7.3-22.4 26.3-38.4 49.5-41.8L377 365c7.9-1.2 14.8-6.1 18.3-13.3l61.6-124.8c10.4-21.1 31.5-34.2 55-34.2s44.6 13.1 55 34.2l61.6 124.8c3.6 7.2 10.4 12.2 18.3 13.3l137.7 20c23.3 3.4 42.3 19.4 49.5 41.8s1.3 46.5-15.5 62.9l-99.7 97.2c-5.7 5.6-8.4 13.7-7 21.6l23.5 137.2c4 23.2-5.4 46.2-24.4 60-19 13.8-43.8 15.6-64.6 4.7l-123.2-64.8c-7.1-3.7-15.6-3.7-22.7 0l-123.2 64.8c-8.7 4.8-18.5 7.1-28.3 7.1z m163.2-111.7c9.8 0 19.6 2.4 28.6 7.1l123.2 64.8c8.4 4.4 18 3.7 25.7-1.9 7.7-5.6 11.3-14.5 9.7-23.8l-23.5-137.2c-3.4-19.9 3.2-40.2 17.6-54.3l99.7-97.2c6.8-6.6 9.1-16 6.2-25-2.9-9-10.3-15.2-19.7-16.6l-137.7-20c-20-2.9-37.3-15.5-46.2-33.6l-61.6-124.8c-4.2-8.5-12.4-13.6-21.9-13.6-9.5 0-17.7 5.1-21.9 13.6l-61.6 124.8c-8.9 18.1-26.2 30.7-46.2 33.6l-137.7 20c-9.4 1.4-16.7 7.6-19.7 16.6-2.9 9-0.6 18.4 6.2 25l99.7 97.2c14.5 14.1 21.1 34.4 17.6 54.3L325 752c-1.6 9.3 2 18.3 9.7 23.8 7.7 5.6 17.3 6.3 25.7 1.9l123.2-64.8c8.9-4.7 18.7-7.1 28.5-7.1z" fill="#9ada9f" p-id="5261" data-spm-anchor-id="a313x.search_index.0.i2.662f3a81kjnZNl" class="selected"></path></svg>