<?xml version="1.0" standalone="no"?><!DOCTYPE svg PUBLIC "-//W3C//DTD SVG 1.1//EN" "http://www.w3.org/Graphics/SVG/1.1/DTD/svg11.dtd"><svg t="1729063628631" class="icon" viewBox="0 0 1077 1024" version="1.1" xmlns="http://www.w3.org/2000/svg" p-id="6179" xmlns:xlink="http://www.w3.org/1999/xlink" width="134.625" height="128"><path d="M919.057965 416.552421l-15.970807-27.243789a86.815439 86.815439 0 0 1-5.434386-30.270878c0-49.529263 40.151579-89.67186 89.680842-89.671859s89.680842 40.151579 89.680842 89.680842c0 44.624842-32.678175 81.33614-75.362807 88.234667l-74.105263 419.929824H150.348351l-74.105263-419.929824C33.558456 440.382877 0.889263 403.671579 0.889263 359.046737c0-49.538246 40.151579-89.680842 89.680842-89.680842s89.67186 40.151579 89.67186 89.680842c0 10.662175-1.931228 20.839298-5.434386 30.270877l-15.961825 27.234807 167.702457 98.286035 147.393122-294.80421c-32.794947-21.306386-54.559439-58.107509-54.559438-100.136421C419.372912 53.876772 472.908351 0.332351 538.947368 0.332351c66.030035 0 119.565474 53.535439 119.565474 119.565474 0 42.037895-21.755509 78.830035-54.550456 100.145403l147.402105 294.804211 167.702456-98.295018z m72.560281-31.339789c12.970667-2.092912 22.519018-13.141333 22.519017-26.165895a26.794667 26.794667 0 1 0-53.607298 0c0 5.991298 2.227649 11.784982 6.602105 16.985824l9.754948 11.560421 14.731228-2.38035zM569.694316 167.325193c16.150456-10.500491 25.941333-28.070175 25.941333-47.427368a56.697263 56.697263 0 0 0-113.385544 0c0 19.357193 9.790877 36.926877 25.941334 47.427368L538.947368 187.302175l30.746948-19.985964zM110.753684 376.032561c4.383439-5.200842 6.602105-10.994526 6.602105-16.985824a26.794667 26.794667 0 1 0-53.598315 0c0 13.024561 9.548351 24.072982 22.519017 26.165895l14.731228 2.38035 9.745965-11.560421z m614.426948 227.040562L538.947368 230.606596 352.714105 603.082105 146.234386 482.043509l56.86793 322.290526h671.70807l56.86793-322.290526L725.180632 603.082105z m-574.841264 413.606175v-89.680842h777.216v89.680842H150.339368z" fill="#000000" p-id="6180"></path></svg>