<?xml version="1.0" standalone="no"?><!DOCTYPE svg PUBLIC "-//W3C//DTD SVG 1.1//EN" "http://www.w3.org/Graphics/SVG/1.1/DTD/svg11.dtd"><svg t="1729236443839" class="icon" viewBox="0 0 1024 1024" version="1.1" xmlns="http://www.w3.org/2000/svg" p-id="34081" xmlns:xlink="http://www.w3.org/1999/xlink" width="128" height="128"><path d="M508.423154 653.540918c-55.185629 0-99.129741-27.592814-120.590819-50.586826-11.752495-12.263473-10.730539-31.680639 1.532934-43.433134s31.680639-10.730539 43.433134 1.532934c7.153693 7.153693 71.025948 68.471058 163.512974-3.065868 13.285429-10.219561 32.702595-8.175649 42.922156 5.620758s8.175649 32.702595-5.620759 42.922156c-44.966068 34.746507-87.888224 47.00998-125.18962 47.00998z" p-id="34082"></path><path d="M921.293413 408.782435c0-225.852295-182.93014-408.782435-408.782435-408.782435s-408.782435 182.93014-408.782435 408.782435c0 167.600798 101.173653 311.696607 245.269461 374.546906-62.339321 42.922156-102.195609 112.41517-102.195609 197.237525v0.510978c0 22.483034 18.39521 40.367265 40.878244 40.367266h1.021956c21.972056 0 39.856287-18.39521 39.856287-40.367266v-0.510978c0-101.173653 82.267465-163.512974 183.952096-163.512974 101.173653 0 183.952096 61.828343 183.952096 163.512974v0.510978c0 21.972056 17.373253 40.367265 39.856287 40.367266 22.994012 0 41.9002-18.906188 41.9002-41.9002v-0.510978c0-8.175649-0.510978-16.351297-1.021956-24.526946-7.153693-74.602794-45.477046-133.365269-101.684631-171.177645 144.095808-62.339321 245.780439-206.43513 245.780439-374.546906z m-408.782435 327.025948c-180.37525 0-327.025948-146.650699-327.025948-327.025948s146.650699-327.025948 327.025948-327.025948 327.025948 146.650699 327.025948 327.025948-147.161677 327.025948-327.025948 327.025948z" p-id="34083"></path></svg>