<?xml version="1.0" standalone="no"?><!DOCTYPE svg PUBLIC "-//W3C//DTD SVG 1.1//EN" "http://www.w3.org/Graphics/SVG/1.1/DTD/svg11.dtd"><svg t="1729065608468" class="icon" viewBox="0 0 1024 1024" version="1.1" xmlns="http://www.w3.org/2000/svg" p-id="19818" xmlns:xlink="http://www.w3.org/1999/xlink" width="128" height="128"><path d="M419.157333 250.405926a44.373333 44.373333 0 0 1 62.767408-0.094815l227.365926 227.328a44.373333 44.373333 0 0 1 0.075852 62.691556L410.282667 840.817778a44.373333 44.373333 0 0 1-31.459556 13.084444H151.552a44.373333 44.373333 0 0 1-44.373333-44.373333v-227.365926c0-11.757037 4.645926-23.002074 12.913777-31.307852l299.064889-300.468148z m31.478519 62.710518L173.776593 591.265185v196.039111h195.697777l277.048889-278.262518-195.868444-195.887408-0.056889-0.037926z m164.067555-257.460148a44.373333 44.373333 0 0 1 62.767408 0L904.760889 282.927407a44.373333 44.373333 0 0 1 0 62.805334l-100.655408 100.541629a44.373333 44.373333 0 0 1-62.767407 0L514.123852 219.022222a44.373333 44.373333 0 0 1 0-62.805333l100.598518-100.54163z m31.402667 62.767408l-69.195852 69.176889 195.868445 195.925333 69.25274-69.195852L646.106074 118.404741zM117.76 914.735407h782.354963c6.106074 0 11.093333 4.987259 11.093333 11.093334v44.373333a11.093333 11.093333 0 0 1-11.093333 11.112296H117.76a11.093333 11.093333 0 0 1-11.093333-11.093333v-44.392296c0-6.106074 4.987259-11.093333 11.093333-11.093334z" fill="#2D3230" p-id="19819"></path></svg>